# xmcd
#
# Track frame offsets: 
#        150
#        18890
#        37780
#        59897
#        82340
#        103675
#        120687
#        145215
#        173200
#        193730
#        219685
#        242147
#        259000
#        282532
#
# Disc length: 4038 seconds
#
# Revision: 1
# Processed by: cddbd v1.5.2PL0 Copyright (c) Steve Scherf et al.
# Submitted via: ExactAudioCopyFreeDBPlugin 1.0
#
DISCID=d70fc40e
DTITLE=Bobby Womack - Resurrection
DYEAR=1994
DGENRE=Soul
TTITLE0=Good Ole Days
TTITLE1=You Made Me Love Again
TTITLE2=So High on Your Love
TTITLE3=Don't Break Your Promise (Too Soon)
TTITLE4=Forever Love
TTITLE5=Please Change Your Mind
TTITLE6=Trying Not to Break Down
TTITLE7=Cousin Henry
TTITLE8=Centerfield
TTITLE9=Goin' Home
TTITLE10=Walkin' on the Wildside
TTITLE11=Cry Myself to Sleep
TTITLE12=Wish
TTITLE13=Color Him Father
EXTD=
EXTT0=
EXTT1=
EXTT2=
EXTT3=
EXTT4=
EXTT5=
EXTT6=
EXTT7=
EXTT8=
EXTT9=
EXTT10=
EXTT11=
EXTT12=
EXTT13=
PLAYORDER=
